<svg xmlns="http://www.w3.org/2000/svg" width="1200" height="630" viewBox="0 0 1200 630" fill="none">
  <defs>
    <linearGradient id="bg" x1="0" y1="0" x2="1" y2="1">
      <stop offset="0%" stop-color="#0f172a"/>
      <stop offset="50%" stop-color="#1e1b4b"/>
      <stop offset="100%" stop-color="#0c4a6e"/>
    </linearGradient>
    <linearGradient id="glow" x1="0" y1="1" x2="1" y2="0">
      <stop offset="0%" stop-color="#f97316" stop-opacity="0.35"/>
      <stop offset="100%" stop-color="#facc15" stop-opacity="0.2"/>
    </linearGradient>
    <filter id="blur" x="-20%" y="-20%" width="140%" height="140%">
      <feGaussianBlur stdDeviation="24"/>
    </filter>
  </defs>
  <rect width="1200" height="630" fill="url(#bg)"/>
  <circle cx="900" cy="120" r="220" fill="url(#glow)" filter="url(#blur)" opacity="0.9"/>
  <circle cx="200" cy="520" r="180" fill="#0369a1" opacity="0.25" filter="url(#blur)"/>
  <g stroke="#fbbf24" stroke-width="2" opacity="0.85">
    <circle cx="420" cy="280" r="12" fill="#f97316"/>
    <circle cx="620" cy="200" r="12" fill="#38bdf8"/>
    <circle cx="720" cy="360" r="12" fill="#a78bfa"/>
    <circle cx="520" cy="400" r="12" fill="#34d399"/>
    <circle cx="880" cy="300" r="12" fill="#fb7185"/>
    <line x1="420" y1="280" x2="620" y2="200"/>
    <line x1="620" y1="200" x2="720" y2="360"/>
    <line x1="420" y1="280" x2="520" y2="400"/>
    <line x1="520" y1="400" x2="720" y2="360"/>
    <line x1="720" y1="360" x2="880" y2="300"/>
    <line x1="620" y1="200" x2="880" y2="300"/>
  </g>
  <g opacity="0.12" stroke="#e2e8f0" stroke-width="1">
    <path d="M0 420 Q300 380 600 420 T1200 400"/>
    <path d="M0 480 Q400 520 800 460 T1200 500"/>
  </g>
  <text x="60" y="560" fill="#94a3b8" font-family="system-ui,sans-serif" font-size="22" letter-spacing="0.2em">GRAPH + VECTORS + BEDROCK</text>
</svg>
